<?xml version="1.0" standalone="no"?>
<!DOCTYPE svg PUBLIC "-//W3C//DTD SVG 20010904//EN"
 "http://www.w3.org/TR/2001/REC-SVG-20010904/DTD/svg10.dtd">
<svg version="1.0" xmlns="http://www.w3.org/2000/svg"
 width="528.000000pt" height="116.000000pt" viewBox="0 0 528.000000 116.000000"
 preserveAspectRatio="xMidYMid meet">

<g transform="translate(0.000000,116.000000) scale(0.100000,-0.100000)"
fill="#000000" stroke="none">
<path d="M414 987 c-107 -28 -211 -112 -259 -211 -99 -203 -15 -438 192 -537
59 -28 81 -33 168 -37 88 -4 109 -1 176 21 95 32 168 75 311 182 151 113 204
139 265 132 37 -4 54 -12 75 -36 42 -47 37 -100 -16 -160 l-21 -25 34 20 c56
31 76 67 76 134 0 70 -21 105 -81 135 -96 48 -201 15 -389 -123 -185 -137
-287 -182 -416 -182 -215 0 -352 153 -319 357 32 195 196 323 399 311 76 -5
76 -5 36 9 -57 20 -171 25 -231 10z"/>
<path d="M1185 984 c-86 -16 -203 -75 -310 -154 -214 -158 -269 -187 -334
-174 -17 4 -45 19 -61 34 -25 23 -30 36 -30 73 0 30 7 53 21 71 30 39 6 32
-29 -9 -79 -89 -37 -217 79 -245 103 -25 170 4 404 174 44 32 105 71 136 86
215 109 442 62 526 -108 24 -49 28 -69 28 -142 -1 -75 -5 -93 -33 -151 -38
-80 -110 -150 -190 -186 -46 -22 -72 -27 -139 -27 -58 -1 -77 -4 -65 -11 9 -5
62 -10 117 -10 91 0 106 3 165 31 155 74 237 210 228 383 -3 73 -9 97 -38 154
-54 110 -155 184 -289 213 -79 16 -95 16 -186 -2z"/>
<path d="M1950 726 l0 -136 30 0 29 0 3 93 3 92 48 -92 47 -93 45 0 45 0 0
135 0 135 -30 0 -30 0 0 -92 0 -93 -48 90 -48 90 -47 3 -47 3 0 -135z"/>
<path d="M2364 841 c-74 -45 -71 -196 5 -235 38 -20 104 -20 142 0 75 38 78
190 6 234 -42 26 -112 26 -153 1z m114 -53 c7 -7 12 -35 12 -63 0 -57 -12 -75
-51 -75 -37 0 -51 21 -51 75 0 25 6 52 12 60 15 18 61 20 78 3z"/>
<path d="M2650 853 c0 -4 19 -65 42 -135 l42 -128 41 0 41 0 42 128 c23 70 42
131 42 136 0 4 -17 6 -37 4 l-38 -3 -25 -93 -25 -93 -25 95 -24 96 -38 0 c-21
0 -38 -3 -38 -7z"/>
<path d="M3011 735 c-23 -68 -41 -129 -41 -135 0 -5 16 -10 35 -10 29 0 36 4
41 25 6 22 11 25 54 25 43 0 49 -3 52 -22 2 -19 10 -24 41 -26 20 -2 37 0 37
4 0 5 -19 66 -42 136 l-42 128 -48 0 -47 0 -40 -125z m102 28 c3 -16 9 -36 12
-45 6 -15 2 -18 -25 -18 -24 0 -31 4 -27 14 3 8 9 31 13 50 7 40 19 40 27 -1z"/>
<path d="M3528 845 c-39 -22 -58 -65 -58 -131 0 -50 3 -59 34 -90 29 -29 41
-34 79 -34 64 0 77 7 77 42 0 16 -4 27 -10 23 -5 -3 -26 -6 -46 -7 -46 -2 -64
20 -64 77 0 57 25 80 80 72 36 -5 41 -3 46 19 4 14 4 28 0 31 -14 14 -112 13
-138 -2z"/>
<path d="M3780 726 l0 -136 35 0 36 0 -3 133 -3 132 -32 3 -33 3 0 -135z"/>
<path d="M3960 726 l0 -136 60 0 c105 0 152 33 165 116 9 50 -13 106 -50 130
-16 11 -54 19 -101 22 l-74 5 0 -137z m128 65 c31 -19 31 -113 0 -133 -7 -4
-23 -8 -35 -8 -22 0 -23 4 -23 75 0 71 1 75 23 75 12 0 28 -4 35 -9z"/>
<path d="M4312 732 c-23 -70 -42 -131 -42 -135 0 -4 16 -7 35 -7 29 0 37 5 45
25 8 21 16 25 54 25 38 0 45 -3 50 -25 5 -21 12 -25 45 -25 l40 0 -46 135 -45
135 -47 0 -47 0 -42 -128z m118 -24 c0 -5 -13 -8 -29 -8 -29 0 -29 1 -20 38
18 67 21 69 35 22 7 -25 14 -48 14 -52z"/>
<path d="M4620 726 l0 -136 60 0 c105 0 152 33 165 116 9 50 -13 106 -50 130
-16 11 -54 19 -101 22 l-74 5 0 -137z m128 65 c31 -19 31 -113 0 -133 -7 -4
-23 -8 -35 -8 -22 0 -23 4 -23 75 0 71 1 75 23 75 12 0 28 -4 35 -9z"/>
<path d="M4960 725 l0 -135 75 0 75 0 0 30 c0 28 -2 30 -40 30 -36 0 -40 3
-40 25 0 23 4 25 41 25 38 0 40 1 37 28 -3 23 -8 27 -40 30 -30 3 -38 7 -38
23 0 16 7 19 40 19 38 0 40 2 40 30 l0 30 -75 0 -75 0 0 -135z"/>
<path d="M2154 491 c-2 -2 -4 -11 -4 -19 0 -11 3 -12 13 -4 8 7 18 7 27 2 16
-10 30 -4 30 13 0 11 -56 18 -66 8z"/>
<path d="M3173 493 c-19 -7 -16 -22 5 -21 9 0 22 0 27 -2 22 -5 35 1 35 17 0
13 -3 14 -12 5 -6 -6 -18 -8 -27 -3 -9 5 -22 6 -28 4z"/>
<path d="M1958 429 c-10 -5 -18 -21 -18 -35 0 -20 9 -29 45 -45 55 -24 62 -54
13 -47 -18 3 -39 7 -47 9 -25 7 -22 -17 4 -29 91 -42 148 38 60 84 -46 23 -45
39 2 40 39 1 53 11 33 24 -20 13 -71 12 -92 -1z"/>
<path d="M2155 408 c-7 -18 -23 -55 -34 -81 -25 -58 -25 -57 -7 -57 8 0 18 9
21 20 5 16 15 20 50 20 35 0 45 -4 50 -20 3 -11 13 -20 21 -20 18 0 14 15 -27
107 -32 71 -53 80 -74 31z m50 -50 c6 -25 5 -28 -19 -28 -29 0 -31 6 -16 46
12 31 25 24 35 -18z"/>
<path d="M2335 417 c-60 -51 -20 -147 61 -147 48 0 84 37 84 85 0 75 -87 112
-145 62z m106 -23 c15 -18 15 -60 -1 -79 -21 -25 -77 -19 -96 10 -39 60 52
124 97 69z"/>
<path d="M2626 418 c-20 -28 -9 -47 41 -73 21 -11 37 -24 36 -30 -3 -14 -53
-19 -66 -6 -15 15 -27 14 -27 -4 0 -36 86 -48 115 -15 25 28 8 64 -39 80 -36
11 -48 34 -23 43 6 2 23 0 36 -5 28 -10 36 -5 28 17 -10 25 -82 20 -101 -7z"/>
<path d="M2790 355 c0 -69 3 -85 15 -85 12 0 15 16 15 85 0 69 -3 85 -15 85
-12 0 -15 -16 -15 -85z"/>
<path d="M2890 355 c0 -50 4 -85 10 -85 6 0 10 28 11 63 l0 62 27 -52 c14 -29
31 -53 37 -53 6 0 23 24 37 53 l27 52 0 -62 c1 -49 4 -63 16 -63 12 0 15 16
15 85 0 78 -2 85 -20 85 -15 0 -28 -16 -47 -55 l-27 -56 -28 56 c-42 82 -58
74 -58 -30z"/>
<path d="M3149 358 c-22 -50 -32 -85 -26 -87 6 -2 17 6 25 18 11 15 25 21 52
21 27 0 41 -6 52 -21 8 -12 19 -20 25 -18 18 6 -56 169 -77 169 -10 0 -28 -28
-51 -82z m70 11 c6 -18 11 -34 11 -35 0 -2 -13 -4 -30 -4 -16 0 -30 2 -30 4 0
14 24 66 30 66 4 0 13 -14 19 -31z"/>
<path d="M3346 414 c-57 -57 -15 -144 69 -144 32 0 85 50 85 80 0 81 -97 121
-154 64z m87 -5 c41 -22 49 -59 20 -91 -33 -37 -103 -13 -103 35 0 27 9 40 35
55 25 14 22 14 48 1z"/>
</g>
</svg>
